<svg width="40" height="40" viewBox="0 0 40 40" fill="none" xmlns="http://www.w3.org/2000/svg">
<circle cx="20" cy="20" r="20" fill="#222222"/>
<mask id="mask0_3595_10858" style="mask-type:luminance" maskUnits="userSpaceOnUse" x="3" y="3" width="34" height="34">
<circle cx="20.0721" cy="20.0724" r="16.9278" fill="white"/>
</mask>
<g mask="url(#mask0_3595_10858)">
<path fillRule="evenodd" clipRule="evenodd" d="M12.9931 36.7817C11.2126 35.9242 9.57624 34.7737 8.15642 33.3684L6.52439 31.5172C4.9461 29.727 3.6563 27.7018 2.70138 25.5146L2.66431 25.2447V18.3455C2.66431 17.9362 2.88938 17.56 3.25008 17.3665L5.05558 16.3977C5.79579 16.0005 6.69203 16.5368 6.69203 17.3768V24.1641H7.72345C8.3371 24.1641 8.83456 24.6616 8.83456 25.2752V27.4058H9.90583V31.7281H12.0484V20.2993C12.0484 20.0063 12.1641 19.7251 12.3704 19.517L13.362 18.5169C14.0606 17.8122 15.2622 18.3069 15.2622 19.2991V31.7281H16.3334V24.8237C16.3334 24.0257 17.1746 23.5078 17.8871 23.8671C18.2482 24.0493 18.476 24.4192 18.476 24.8237V31.7281H19.5472V17.0576C19.5472 16.7646 19.663 16.4835 19.8693 16.2754L22.761 13.3585V8.42074L25.1459 6.01515C25.8445 5.31053 27.0461 5.80521 27.0461 6.79742V31.7281H28.1174V27.4058H30.2599V17.4908C30.2599 16.6253 31.2058 16.0921 31.9463 16.5403L35.0804 18.4371C35.4131 18.6383 35.6163 18.9989 35.6163 19.3876V23.0836L37.0737 25.5146L36.0245 27.9802C35.4469 29.3376 34.6528 30.5923 33.6733 31.6953L33.2573 32.1637C31.6214 34.0058 29.6487 35.5114 27.4503 36.6026C25.1778 37.6137 22.6612 38.1756 20.0135 38.1756C17.5264 38.1756 15.1551 37.6798 12.9931 36.7817Z" fill="#D7FFC4"/>
<path fillRule="evenodd" clipRule="evenodd" d="M12.9931 36.7817C11.2126 35.9242 9.57624 34.7737 8.15642 33.3684L6.52439 31.5172C4.9461 29.727 3.6563 27.7018 2.70138 25.5146L2.66431 25.2447V18.3455C2.66431 17.9362 2.88938 17.56 3.25008 17.3665L5.05558 16.3977C5.79579 16.0005 6.69203 16.5368 6.69203 17.3768V24.1641H7.72345C8.3371 24.1641 8.83456 24.6616 8.83456 25.2752V27.4058H9.90583V31.7281H12.0484V20.2993C12.0484 20.0063 12.1641 19.7251 12.3704 19.517L13.362 18.5169C14.0606 17.8122 15.2622 18.3069 15.2622 19.2991V31.7281H16.3334V24.8237C16.3334 24.0257 17.1746 23.5078 17.8871 23.8671C18.2482 24.0493 18.476 24.4192 18.476 24.8237V31.7281H19.5472V17.0576C19.5472 16.7646 19.663 16.4835 19.8693 16.2754L22.761 13.3585V8.42074L25.1459 6.01515C25.8445 5.31053 27.0461 5.80521 27.0461 6.79742V31.7281H28.1174V27.4058H30.2599V17.4908C30.2599 16.6253 31.2058 16.0921 31.9463 16.5403L35.0804 18.4371C35.4131 18.6383 35.6163 18.9989 35.6163 19.3876V23.0836L37.0737 25.5146L36.0245 27.9802C35.4469 29.3376 34.6528 30.5923 33.6733 31.6953L33.2573 32.1637C31.6214 34.0058 29.6487 35.5114 27.4503 36.6026C25.1778 37.6137 22.6612 38.1756 20.0135 38.1756C17.5264 38.1756 15.1551 37.6798 12.9931 36.7817Z" fill="url(#paint0_linear_3595_10858)"/>
</g>
<defs>
<linearGradient id="paint0_linear_3595_10858" x1="2.66235" y1="26.5696" x2="30.0745" y2="11.075" gradientUnits="userSpaceOnUse">
<stop stopColor="#F5D0D0"/>
<stop offset="0.137868" stopColor="#F1E3D1" stopOpacity="0.862132"/>
<stop offset="0.285203" stopColor="#F1F2C1" stopOpacity="0.84"/>
<stop offset="0.400758" stopColor="#D5EEC5" stopOpacity="0.86"/>
<stop offset="0.528388" stopColor="#C9E9D8" stopOpacity="0.85"/>
<stop offset="0.63409" stopColor="#CDDEE6" stopOpacity="0.79"/>
<stop offset="0.739489" stopColor="#E6DAFF" stopOpacity="0.56"/>
<stop offset="0.841756" stopColor="#F8DDFF" stopOpacity="0.61"/>
<stop offset="0.930734" stopColor="#FDC7F1" stopOpacity="0.8"/>
<stop offset="1" stopColor="#FEBFBF" stopOpacity="0.81"/>
</linearGradient>
</defs>
</svg>
