<svg width="164" height="40" viewBox="0 0 164 40" fill="none" xmlns="http://www.w3.org/2000/svg">
<circle cx="20" cy="20" r="20" fill="#222222"/>
<mask id="mask0_4341_7047" style="mask-type:luminance" maskUnits="userSpaceOnUse" x="2" y="2" width="36" height="36">
<circle cx="20.0722" cy="20.0724" r="17.85" fill="white"/>
</mask>
<g mask="url(#mask0_4341_7047)">
<path fillRule="evenodd" clipRule="evenodd" d="M2.94751 23.0759V18.5205C2.94751 18.1112 3.17258 17.735 3.53329 17.5415L5.26992 16.6097C6.01013 16.2125 6.90636 16.7487 6.90636 17.5887V24.2283H7.90116C8.51481 24.2283 9.01227 24.7257 9.01227 25.3394V27.4145H10.0652V31.6629H12.1711V20.4374C12.1711 20.1443 12.2869 19.8632 12.4932 19.6551L13.4298 18.7103C14.1284 18.0057 15.33 18.5004 15.33 19.4926V31.6629H16.3829V24.8765C16.3829 24.0922 17.2097 23.5832 17.91 23.9364C18.265 24.1154 18.4888 24.479 18.4888 24.8765V31.6629H19.5418V17.2511C19.5418 16.9581 19.6575 16.6769 19.8638 16.4688L22.7006 13.6074V8.75406L25.0123 6.42238C25.7108 5.71775 26.9124 6.21244 26.9124 7.20465V31.6629H27.9654V27.4145H30.0713V17.7028C30.0713 16.8372 31.0172 16.3041 31.7577 16.7522L34.8002 18.5936C35.1329 18.7949 35.3361 19.1554 35.3361 19.5442V23.1662L36.6672 25.3865C34.4657 32.6496 27.8703 37.9225 20.0763 37.9225C15.4567 37.9225 11.2582 36.0701 8.14608 33.0487L6.74159 31.4556C6.56401 31.2542 6.39015 31.0498 6.22007 30.8424C4.571 28.6063 3.42291 25.9587 2.94751 23.0759Z" fill="#D7FFC4"/>
<path fillRule="evenodd" clipRule="evenodd" d="M2.94751 23.0759V18.5205C2.94751 18.1112 3.17258 17.735 3.53329 17.5415L5.26992 16.6097C6.01013 16.2125 6.90636 16.7487 6.90636 17.5887V24.2283H7.90116C8.51481 24.2283 9.01227 24.7257 9.01227 25.3394V27.4145H10.0652V31.6629H12.1711V20.4374C12.1711 20.1443 12.2869 19.8632 12.4932 19.6551L13.4298 18.7103C14.1284 18.0057 15.33 18.5004 15.33 19.4926V31.6629H16.3829V24.8765C16.3829 24.0922 17.2097 23.5832 17.91 23.9364C18.265 24.1154 18.4888 24.479 18.4888 24.8765V31.6629H19.5418V17.2511C19.5418 16.9581 19.6575 16.6769 19.8638 16.4688L22.7006 13.6074V8.75406L25.0123 6.42238C25.7108 5.71775 26.9124 6.21244 26.9124 7.20465V31.6629H27.9654V27.4145H30.0713V17.7028C30.0713 16.8372 31.0172 16.3041 31.7577 16.7522L34.8002 18.5936C35.1329 18.7949 35.3361 19.1554 35.3361 19.5442V23.1662L36.6672 25.3865C34.4657 32.6496 27.8703 37.9225 20.0763 37.9225C15.4567 37.9225 11.2582 36.0701 8.14608 33.0487L6.74159 31.4556C6.56401 31.2542 6.39015 31.0498 6.22007 30.8424C4.571 28.6063 3.42291 25.9587 2.94751 23.0759Z" fill="url(#paint0_linear_4341_7047)"/>
</g>
<path d="M123.786 28.052C123.338 28.052 123.002 27.964 122.778 27.788C122.57 27.612 122.466 27.324 122.466 26.924V26.108C121.938 26.636 121.274 27.1 120.474 27.5C119.69 27.9 118.898 28.1 118.098 28.1C116.61 28.1 115.554 27.7 114.93 26.9C114.306 26.1 113.994 24.78 113.994 22.94V15.98L112.65 15.596V14.54L116.01 14.228H116.034L116.49 14.516V22.748C116.49 23.676 116.554 24.404 116.682 24.932C116.826 25.444 117.066 25.828 117.402 26.084C117.754 26.324 118.258 26.444 118.914 26.444C119.554 26.444 120.154 26.308 120.714 26.036C121.274 25.764 121.762 25.444 122.178 25.076V15.98L120.45 15.596V14.54L124.098 14.228H124.122L124.674 14.516V26.612H126.114L126.09 27.692C125.642 27.804 125.25 27.892 124.914 27.956C124.594 28.02 124.218 28.052 123.786 28.052Z" fill="white"/>
<path d="M106.625 9.93193L104.681 9.66793V8.63593L108.545 8.17993H108.593L109.121 8.53993V26.4679L111.161 26.6599V27.8359H104.681V26.6599L106.625 26.4439V9.93193Z" fill="white"/>
<path d="M91.4202 24.236C91.4202 22.732 92.1722 21.628 93.6762 20.924C95.1802 20.204 97.0842 19.82 99.3882 19.772V19.1C99.3882 18.348 99.3082 17.756 99.1482 17.324C98.9882 16.892 98.7082 16.58 98.3082 16.388C97.9242 16.18 97.3722 16.076 96.6522 16.076C95.8362 16.076 95.1002 16.196 94.4442 16.436C93.8042 16.66 93.1642 16.94 92.5242 17.276L91.9242 16.028C92.1322 15.852 92.5162 15.62 93.0762 15.332C93.6362 15.044 94.2842 14.788 95.0202 14.564C95.7562 14.34 96.4922 14.228 97.2282 14.228C98.3642 14.228 99.2602 14.388 99.9162 14.708C100.588 15.012 101.068 15.508 101.356 16.196C101.644 16.884 101.788 17.804 101.788 18.956V26.66H103.204V27.716C102.884 27.796 102.476 27.876 101.98 27.956C101.5 28.036 101.076 28.076 100.708 28.076C100.26 28.076 99.9562 28.004 99.7962 27.86C99.6362 27.732 99.5562 27.436 99.5562 26.972V26.18C99.0762 26.66 98.4842 27.1 97.7802 27.5C97.0922 27.9 96.3082 28.1 95.4282 28.1C94.2762 28.1 93.3162 27.772 92.5482 27.116C91.7962 26.444 91.4202 25.484 91.4202 24.236ZM96.4602 26.468C96.8762 26.468 97.3562 26.34 97.9002 26.084C98.4442 25.828 98.9402 25.524 99.3882 25.172V21.044C97.6442 21.044 96.3242 21.316 95.4282 21.86C94.5482 22.388 94.1082 23.084 94.1082 23.948C94.1082 24.812 94.3162 25.452 94.7322 25.868C95.1642 26.268 95.7402 26.468 96.4602 26.468Z" fill="white"/>
<path d="M80.5552 16.0519L80.1232 18.3319H78.6592V14.5159H88.8592L89.3392 15.5479L82.2832 25.0039L80.6272 26.4919L87.0832 26.2759L88.0912 23.5879L89.4832 23.7559L89.0512 27.8359H78.2752L77.7712 26.7799L84.9472 17.4199L86.5312 15.8839L80.5552 16.0519Z" fill="white"/>
<path d="M73.8871 28.052C73.4391 28.052 73.1031 27.964 72.8791 27.788C72.6711 27.612 72.5671 27.324 72.5671 26.924V26.108C72.0391 26.636 71.3751 27.1 70.5751 27.5C69.7911 27.9 68.9991 28.1 68.1991 28.1C66.7111 28.1 65.6551 27.7 65.0311 26.9C64.4071 26.1 64.0951 24.78 64.0951 22.94V15.98L62.7511 15.596V14.54L66.1111 14.228H66.1351L66.5911 14.516V22.748C66.5911 23.676 66.6551 24.404 66.7831 24.932C66.9271 25.444 67.1671 25.828 67.5031 26.084C67.8551 26.324 68.3591 26.444 69.0151 26.444C69.6551 26.444 70.2551 26.308 70.8151 26.036C71.3751 25.764 71.8631 25.444 72.2791 25.076V15.98L70.5511 15.596V14.54L74.1991 14.228H74.2231L74.7751 14.516V26.612H76.2151L76.1911 27.692C75.7431 27.804 75.3511 27.892 75.0151 27.956C74.6951 28.02 74.3191 28.052 73.8871 28.052Z" fill="white"/>
<path d="M57.704 11.1559L50.6 11.4199L49.376 14.6119L48.008 14.4199L48.536 9.93188H60.176L60.728 10.9639L51.608 24.7879L50 26.5639L58.304 26.1319L59.552 22.3639L60.968 22.6759L60.416 27.8359H47.648L47 26.7799L56.312 12.8599L57.704 11.1559Z" fill="white"/>
<path opacity="0.3" d="M156.481 31.8201C156.3 31.8201 156.119 31.8094 155.937 31.7881C155.767 31.7667 155.644 31.7347 155.569 31.6921V30.3001C155.633 30.3427 155.756 30.3747 155.937 30.3961C156.129 30.4174 156.311 30.4281 156.481 30.4281C156.993 30.4281 157.441 30.2467 157.825 29.8841C158.22 29.5321 158.599 28.8494 158.961 27.8361H158.193L155.153 19.9161L154.417 19.7081V18.9561H158.273V19.7081L157.041 19.9001L158.609 24.6201L159.345 26.9561L160.033 24.6041L161.457 19.9001L160.385 19.7081V18.9561H163.601V19.7081L162.801 19.9001C161.233 24.7001 160.311 27.4254 160.033 28.0761C159.671 28.9934 159.34 29.7081 159.041 30.2201C158.743 30.7427 158.391 31.1374 157.985 31.4041C157.58 31.6814 157.079 31.8201 156.481 31.8201Z" fill="white"/>
<path opacity="0.3" d="M151.406 27.9959C150.798 27.9959 150.344 27.8572 150.046 27.5799C149.747 27.3025 149.598 26.8279 149.598 26.1559V20.0119H148.446V19.2919C148.499 19.2812 148.648 19.2439 148.894 19.1799C149.139 19.1159 149.304 19.0572 149.39 19.0039C149.56 18.9079 149.694 18.7159 149.79 18.4279C149.875 18.2252 149.976 17.8999 150.094 17.4519C150.211 17.0039 150.28 16.7372 150.302 16.6519H151.246L151.278 18.9559H153.95V20.0119H151.278V24.9239C151.278 25.5319 151.294 25.9585 151.326 26.2039C151.368 26.4492 151.448 26.6092 151.566 26.6839C151.694 26.7585 151.907 26.7959 152.206 26.7959C152.494 26.7959 152.808 26.7585 153.15 26.6839C153.502 26.6092 153.774 26.5292 153.966 26.4439L154.206 27.1639C153.95 27.3559 153.534 27.5425 152.958 27.7239C152.392 27.9052 151.875 27.9959 151.406 27.9959Z" fill="white"/>
<path opacity="0.3" d="M145.23 17.3559C144.888 17.3559 144.632 17.2599 144.462 17.0679C144.291 16.8759 144.206 16.6306 144.206 16.3319C144.206 15.9906 144.307 15.7079 144.51 15.4839C144.723 15.2599 145.011 15.1479 145.374 15.1479C145.736 15.1479 146.003 15.2439 146.174 15.4359C146.344 15.6279 146.43 15.8733 146.43 16.1719C146.43 16.5346 146.323 16.8226 146.11 17.0359C145.907 17.2493 145.619 17.3559 145.246 17.3559H145.23ZM144.59 20.1879L143.374 19.8999V19.0519L145.854 18.7479H145.886L146.254 19.0359V26.924L147.534 27.0519V27.8359H143.294V27.0519L144.59 26.9079V20.1879Z" fill="white"/>
<path opacity="0.3" d="M134.946 23.4521C134.946 22.5667 135.117 21.7667 135.458 21.0521C135.81 20.3374 136.322 19.7721 136.994 19.3561C137.677 18.9294 138.493 18.7161 139.442 18.7161C139.901 18.7161 140.296 18.7587 140.626 18.8441C140.957 18.9294 141.352 19.0467 141.81 19.1961L141.746 21.6601H140.706L140.354 20.0281C140.29 19.7294 139.885 19.5801 139.138 19.5801C138.392 19.5801 137.8 19.8841 137.362 20.4921C136.936 21.0894 136.722 21.9427 136.722 23.0521C136.722 24.3107 136.962 25.2707 137.442 25.9321C137.933 26.5827 138.568 26.9081 139.346 26.9081C139.794 26.9081 140.216 26.8387 140.61 26.7001C141.016 26.5614 141.362 26.3961 141.65 26.2041L141.954 26.8441C141.666 27.1427 141.24 27.4147 140.674 27.6601C140.12 27.8947 139.554 28.0121 138.978 28.0121C138.104 28.0121 137.362 27.8147 136.754 27.4201C136.157 27.0254 135.704 26.4867 135.394 25.8041C135.096 25.1107 134.946 24.3267 134.946 23.4521Z" fill="white"/>
<path opacity="0.3" d="M132.216 27.996C131.939 27.996 131.699 27.9 131.496 27.708C131.293 27.516 131.192 27.2706 131.192 26.972C131.192 26.6413 131.309 26.364 131.544 26.14C131.789 25.916 132.072 25.804 132.392 25.804C132.723 25.804 132.973 25.9053 133.144 26.108C133.325 26.3 133.416 26.54 133.416 26.828C133.416 27.18 133.299 27.4626 133.064 27.676C132.829 27.8893 132.547 27.996 132.216 27.996Z" fill="white"/>
<defs>
<linearGradient id="paint0_linear_4341_7047" x1="2.94558" y1="26.6025" x2="29.8781" y2="11.3662" gradientUnits="userSpaceOnUse">
<stop stopColor="#F5D0D0"/>
<stop offset="0.137868" stopColor="#F1E3D1" stopOpacity="0.862132"/>
<stop offset="0.285203" stopColor="#F1F2C1" stopOpacity="0.84"/>
<stop offset="0.400758" stopColor="#D5EEC5" stopOpacity="0.86"/>
<stop offset="0.528388" stopColor="#C9E9D8" stopOpacity="0.85"/>
<stop offset="0.63409" stopColor="#CDDEE6" stopOpacity="0.79"/>
<stop offset="0.739489" stopColor="#E6DAFF" stopOpacity="0.56"/>
<stop offset="0.841756" stopColor="#F8DDFF" stopOpacity="0.61"/>
<stop offset="0.930734" stopColor="#FDC7F1" stopOpacity="0.8"/>
<stop offset="1" stopColor="#FEBFBF" stopOpacity="0.81"/>
</linearGradient>
</defs>
</svg>
